<svg width="222" height="27" viewBox="0 0 222 27" fill="none" xmlns="http://www.w3.org/2000/svg">
<path d="M3.87282 2.24561H0.34967V25.1382H3.87282V2.24561Z" fill="black"/>
<path d="M11.7912 9.43799H8.26807V25.133H11.7912V9.43799Z" fill="black"/>
<path d="M11.666 2.92414C11.2119 2.47526 10.6586 2.24561 10.0166 2.24561C9.37461 2.24561 8.837 2.47526 8.38813 2.91892C7.93403 3.36779 7.70959 3.9054 7.70959 4.51608C7.70959 5.16329 7.93925 5.71656 8.38813 6.16543C8.84222 6.61431 9.39549 6.83875 10.0375 6.83875C10.6795 6.83875 11.2275 6.60909 11.666 6.16543C12.1201 5.71656 12.3497 5.16851 12.3497 4.53174C12.3497 3.89496 12.1201 3.35214 11.6712 2.91892H11.666V2.92414Z" fill="black"/>
<path d="M31.0292 9.43799H27.0676L22.892 18.4677L18.6956 9.43799H14.7496L22.8555 26.1194L31.0292 9.43799Z" fill="black"/>
<path d="M34.0049 23.3423C35.4246 24.8403 37.3402 25.5919 39.6889 25.5919C40.5084 25.5919 41.2809 25.5032 41.9855 25.331C42.6849 25.1587 43.3478 24.8873 43.948 24.5167C44.5535 24.1514 45.1276 23.6712 45.6548 23.097C46.1663 22.5438 46.6622 21.8652 47.1267 21.0927L44.1516 19.4486C43.4104 20.5865 42.7371 21.385 42.1525 21.813C41.5366 22.2567 40.7537 22.4811 39.8194 22.4811C38.6189 22.4811 37.6168 22.0897 36.8495 21.3172C36.0823 20.5343 35.6438 19.4695 35.5447 18.1542V18.0602H47.0119L47.0275 17.2773C47.0275 14.6937 46.349 12.6476 45.0128 11.1966C43.6662 9.72994 41.808 8.98877 39.4906 8.98877C37.1731 8.98877 35.3254 9.75081 33.9371 11.254C32.5591 12.7833 31.8545 14.8137 31.8545 17.293C31.8545 19.7722 32.5748 21.8182 33.9997 23.3319H34.0049V23.3423ZM35.7952 15.1425C35.9152 14.6832 36.0979 14.2604 36.3328 13.8951C36.5677 13.5349 36.8495 13.2113 37.1836 12.9504C37.5124 12.6894 37.883 12.491 38.2849 12.3501C38.6868 12.2092 39.12 12.1413 39.5793 12.1413C41.5836 12.1413 42.8676 13.1487 43.3895 15.1373L43.4156 15.2469H35.7691L35.7952 15.1373V15.1425Z" fill="black"/>
<path d="M66.0991 25.1382V2.24561H62.5603V11.411L62.4141 11.2596C60.9579 9.76166 59.2876 9.00483 57.4504 9.00483C55.3313 9.00483 53.541 9.80341 52.1422 11.3693C50.7277 12.9351 50.0126 14.9081 50.0126 17.2464C50.0126 19.5847 50.7277 21.6568 52.1422 23.254C53.5619 24.8146 55.3783 25.6028 57.5287 25.6028C59.3346 25.6028 60.9788 24.8981 62.4141 23.5098L62.5603 23.3688V25.1487H66.0991V25.1382ZM61.5007 21.0566C60.6447 22.0066 59.5069 22.4867 58.1185 22.4867C56.8188 22.4867 55.7227 21.9909 54.8667 21.0044C54.0368 20.0388 53.6141 18.7653 53.6141 17.236C53.6141 15.7954 54.0473 14.574 54.8981 13.598C55.7645 12.6271 56.8606 12.1313 58.1498 12.1313C59.5173 12.1313 60.6447 12.6167 61.5007 13.5771C62.3567 14.5531 62.7899 15.8163 62.7899 17.3142C62.7899 18.8122 62.3567 20.0753 61.5059 21.0514L61.5007 21.0566Z" fill="black"/>
<path d="M77.4769 8.99951C75.1334 8.99951 73.1239 9.80331 71.4902 11.3848C69.8617 12.9715 69.037 14.9132 69.037 17.1732C69.037 19.569 69.8461 21.5889 71.4432 23.1756C73.0404 24.778 75.0499 25.5922 77.4091 25.5922C79.7683 25.5922 81.8352 24.7937 83.4741 23.2226C85.1026 21.6359 85.9273 19.6525 85.9273 17.3037C85.9273 14.9549 85.1078 12.9976 83.4898 11.4005C81.8509 9.80331 79.8257 8.99951 77.4717 8.99951H77.4769ZM81.0053 21.0774C80.1284 22.0169 78.9384 22.4919 77.4769 22.4919C76.0155 22.4919 74.8359 22.0117 73.9486 21.0617C73.0821 20.1222 72.6437 18.8382 72.6437 17.2411C72.6437 15.7483 73.0926 14.5113 73.9799 13.5666C74.8672 12.6166 76.0468 12.1364 77.4769 12.1364C78.9071 12.1364 80.118 12.6166 81.0053 13.5666C81.8822 14.5061 82.3258 15.7692 82.3258 17.3246C82.3258 18.88 81.8822 20.1483 81.0053 21.0826V21.0774Z" fill="black"/>
<path d="M97.2384 8.99951C94.8948 8.99951 92.8853 9.80331 91.2516 11.3848C89.6231 12.9715 88.7985 14.9132 88.7985 17.1732C88.7985 19.569 89.6075 21.5889 91.2046 23.1756C92.8018 24.778 94.8113 25.5922 97.1705 25.5922C99.5297 25.5922 101.597 24.7937 103.236 23.2226C104.864 21.6359 105.689 19.6525 105.689 17.3037C105.689 14.9549 104.869 12.9976 103.251 11.4005C101.612 9.80331 99.5871 8.99951 97.2331 8.99951H97.2384ZM100.767 21.0774C99.8899 22.0169 98.6998 22.4919 97.2384 22.4919C95.7769 22.4919 94.5973 22.0117 93.71 21.0617C92.8436 20.1222 92.4051 18.8382 92.4051 17.2411C92.4051 15.7483 92.854 14.5113 93.7413 13.5666C94.6286 12.6166 95.8082 12.1364 97.2384 12.1364C98.6685 12.1364 99.8794 12.6166 100.767 13.5666C101.644 14.5061 102.087 15.7692 102.087 17.3246C102.087 18.88 101.644 20.1483 100.767 21.0826V21.0774Z" fill="black"/>
<path d="M115.668 12.3819C116.326 12.3819 117.004 12.622 117.688 13.0917L119.301 9.89741C118.283 9.30761 117.291 9.00488 116.357 9.00488C115.642 9.00488 115.01 9.14059 114.488 9.40156C113.972 9.65732 113.371 10.1375 112.703 10.8369L112.557 10.9935V9.44332H109.034V25.1383H112.557V16.9959C112.557 13.9373 113.601 12.3819 115.668 12.3819Z" fill="black"/>
<path d="M212.359 11.8237H220.522L221.253 8.42578H213.606C210.297 8.42578 206.44 9.91855 206.44 14.1255C206.44 17.0536 209.655 18.0296 212.239 18.8125C214.123 19.3815 215.752 19.8773 215.752 20.8847C215.752 22.106 214.629 22.5445 213.575 22.5445C212.182 22.5445 209.452 22.5184 207.374 22.4975C206.09 22.4871 205.057 22.4714 204.733 22.4714H204.561L203.867 25.7962H212.657C215.115 25.7962 216.963 25.1699 218.153 23.9329C219.531 22.5027 219.609 20.6916 219.572 19.9817C219.431 16.8813 216.237 15.9679 213.669 15.2372C211.863 14.7257 210.297 14.2768 210.297 13.2695C210.297 11.9594 211.743 11.8184 212.364 11.8184H212.359V11.8237Z" fill="#4293E8"/>
<path d="M154.224 0.570312L149.563 21.6466C148.759 19.7884 147.225 16.3018 145.852 13.1858L145.816 13.1075C143.989 8.9528 142.094 4.65195 141.692 3.6759C140.669 1.19665 138.968 1.01397 138.289 1.0505C137.397 1.09748 135.768 1.60899 134.933 4.49536L130.215 25.8117H134.234L138.555 6.28564C139.323 8.06027 140.758 11.3224 142.266 14.7464C144.109 18.9324 146.014 23.2594 146.426 24.2615C147.387 26.579 148.932 26.8921 149.688 26.8921H149.829C150.722 26.8452 152.35 26.3337 153.186 23.4473L158.243 0.580751H154.229V0.570312H154.224Z" fill="#4293E8"/>
<path d="M172.666 17.9663C171.163 21.3225 169.232 22.7578 166.199 22.7578C163.537 22.7578 161.883 21.0876 161.883 18.41C161.883 14.6989 164.999 11.442 168.553 11.442C170.056 11.442 170.933 11.6403 171.888 12.7521L164.79 16.2439V19.6366L176.695 13.749L176.638 13.5767C175.406 9.75609 173.104 8.04932 169.19 8.04932C163.26 8.04932 158.062 13.2427 158.062 19.1616C158.062 23.1962 161.178 26.2392 165.301 26.2392C170.312 26.2392 175.239 22.5908 176.283 18.1125L176.346 17.8515H172.718L172.661 17.982V17.9715H172.666V17.9663Z" fill="#4293E8"/>
<path d="M200.746 8.431L198.471 19.037C198.173 20.4306 197.307 22.7585 194.869 22.7585C193.914 22.7585 192.301 22.461 192.301 20.4567C192.301 20.1174 192.338 19.7729 192.4 19.4754L194.765 8.42578H191.116L188.841 19.1048C188.298 21.5632 186.993 22.7585 184.837 22.7585C183.412 22.7585 182.661 21.986 182.661 20.5298C182.661 20.2531 182.697 19.9504 182.76 19.6894L185.161 8.431H181.58L179.091 20.0339C179.018 20.3888 178.945 20.7959 178.945 21.2083C178.945 24.2669 180.954 26.1616 184.185 26.1616C186.142 26.1616 188.256 25.2847 189.645 23.9172C190.939 25.7806 192.442 26.1616 194.42 26.1616C197.568 26.1616 201.122 23.4109 201.728 20.5089L204.306 8.43622H200.725V8.42578H200.746V8.431Z" fill="#4293E8"/>
</svg>
