<svg width="56" height="56" viewBox="0 0 56 56" fill="none" xmlns="http://www.w3.org/2000/svg">
<rect width="56" height="56" rx="28" fill="#2B2325"/>
<path d="M23.1345 36.4616L23 35.4156L25.5808 28.2963C25.7154 28.4142 25.8548 28.5074 25.999 28.5761C26.1433 28.6447 26.2924 28.7015 26.4463 28.7463L23.927 35.7193L23.1345 36.4616ZM32.8655 36.4616L32.073 35.7193L29.5538 28.7463C29.7076 28.7015 29.8567 28.6447 30.001 28.5761C30.1452 28.5074 30.2846 28.4142 30.4193 28.2963L33 35.4156L32.8655 36.4616ZM28 27.0386C27.3077 27.0386 26.7179 26.795 26.2308 26.3078C25.7436 25.8207 25.5 25.2309 25.5 24.5386C25.5 23.8886 25.7035 23.3447 26.1105 22.9068C26.5177 22.469 26.9808 22.2077 27.5 22.1231V19.5386H28.5V22.1231C29.0192 22.2077 29.4823 22.469 29.8895 22.9068C30.2965 23.3447 30.5 23.8886 30.5 24.5386C30.5 25.2309 30.2564 25.8207 29.7693 26.3078C29.2821 26.795 28.6923 27.0386 28 27.0386ZM28 26.0386C28.4115 26.0386 28.7644 25.8915 29.0587 25.5973C29.3529 25.303 29.5 24.9501 29.5 24.5386C29.5 24.1271 29.3529 23.7742 29.0587 23.4798C28.7644 23.1857 28.4115 23.0386 28 23.0386C27.5885 23.0386 27.2356 23.1857 26.9412 23.4798C26.6471 23.7742 26.5 24.1271 26.5 24.5386C26.5 24.9501 26.6471 25.303 26.9412 25.5973C27.2356 25.8915 27.5885 26.0386 28 26.0386Z" fill="#F6F6F6"/>
</svg>
