<svg width="56" height="57" viewBox="0 0 56 57" fill="none" xmlns="http://www.w3.org/2000/svg">
<rect y="0.947266" width="56" height="56" rx="28" fill="#2B2325"/>
<path d="M22.6094 37.9473V34.1858C21.6594 33.3191 20.9219 32.345 20.3969 31.2635C19.8719 30.1822 19.6094 29.0721 19.6094 27.9333C19.6094 25.7149 20.3871 23.8293 21.9426 22.2765C23.4983 20.7237 25.3872 19.9473 27.6094 19.9473C29.4107 19.9473 31.0386 20.4957 32.4931 21.5925C33.9476 22.6893 34.8909 24.1057 35.3229 25.8415L36.3596 29.9458C36.4261 30.1993 36.3786 30.4296 36.2171 30.6368C36.0556 30.8438 35.8402 30.9473 35.5709 30.9473H33.6094V34.3318C33.6094 34.7761 33.4512 35.1564 33.1349 35.4728C32.8185 35.7891 32.4382 35.9473 31.9939 35.9473H29.6094V37.9473H28.6094V34.9473H31.9939C32.1734 34.9473 32.3209 34.8896 32.4364 34.7743C32.5517 34.6588 32.6094 34.5113 32.6094 34.3318V29.9473H35.3094L34.3594 26.0723C33.976 24.5428 33.153 23.3063 31.8901 22.3628C30.6273 21.4191 29.2004 20.9473 27.6094 20.9473C25.676 20.9473 24.026 21.6241 22.6594 22.9778C21.2927 24.3316 20.6094 25.9778 20.6094 27.9165C20.6094 28.9132 20.8135 29.86 21.2219 30.757C21.6302 31.6542 22.2094 32.4516 22.9594 33.1493L23.6094 33.7473V37.9473H22.6094Z" fill="#F6F6F6"/>
</svg>
